<svg width="105" height="26" viewBox="0 0 105 26" fill="none" xmlns="http://www.w3.org/2000/svg">
<path d="M28.2614 24.2955C30.5779 26.6111 34.3677 26.5564 36.6147 24.1328C38.658 21.929 38.658 18.4686 36.6147 16.2647C34.3677 13.8411 30.5779 13.7865 28.2614 16.1021L24.412 19.9498C24.2741 20.0877 24.2741 20.3099 24.412 20.4477L28.2614 24.2955Z" fill="#D0C5FB"/>
<path d="M25.8865 15.3123C28.2031 12.9967 28.1484 9.20857 25.7238 6.9625C23.519 4.92005 20.0572 4.92005 17.8524 6.9625C15.4278 9.20857 15.3731 12.9967 17.6897 15.3123L21.5391 19.1601C21.677 19.2979 21.8993 19.2979 22.0372 19.1601L25.8865 15.3123Z" fill="#EFE669"/>
<path d="M15.3194 24.2955C13.0028 26.6111 9.21309 26.5564 6.96607 24.1328C4.92277 21.929 4.92277 18.4686 6.96607 16.2647C9.21309 13.8411 13.0028 13.7865 15.3194 16.1021L19.1688 19.9498C19.3066 20.0877 19.3066 20.3099 19.1688 20.4477L15.3194 24.2955Z" fill="#00D1C6"/>
<path d="M21.7888 3.84154C22.85 3.84154 23.7103 2.98158 23.7103 1.92077C23.7103 0.859957 22.85 0 21.7888 0C20.7275 0 19.8672 0.859957 19.8672 1.92077C19.8672 2.98158 20.7275 3.84154 21.7888 3.84154Z" fill="#EFE669"/>
<path d="M41.4997 22.1189C42.561 22.1189 43.4213 21.2589 43.4213 20.1981C43.4213 19.1373 42.561 18.2773 41.4997 18.2773C40.4384 18.2773 39.5781 19.1373 39.5781 20.1981C39.5781 21.2589 40.4384 22.1189 41.4997 22.1189Z" fill="#D0C5FB"/>
<path d="M1.92158 22.1189C2.98283 22.1189 3.84315 21.2589 3.84315 20.1981C3.84315 19.1373 2.98283 18.2773 1.92158 18.2773C0.860319 18.2773 0 19.1373 0 20.1981C0 21.2589 0.860319 22.1189 1.92158 22.1189Z" fill="#00D1C6"/>
<path d="M60.7513 19.2626C60.7513 19.6053 60.618 19.8935 60.3503 20.126C60.0825 20.3585 59.7991 20.4748 59.4974 20.4748C59.1412 20.4748 58.8396 20.3379 58.5937 20.0643L54.8939 16.1602L53.8872 17.0841V19.242C53.8872 19.5981 53.7709 19.896 53.5383 20.1357C53.3057 20.3755 53.0101 20.4954 52.6539 20.4954C52.2978 20.4954 52.0034 20.3755 51.7708 20.1357C51.537 19.896 51.4219 19.5981 51.4219 19.242V6.54532C51.4219 6.1893 51.5382 5.89141 51.7708 5.65164C52.0034 5.41188 52.2978 5.29199 52.6539 5.29199C53.0101 5.29199 53.3045 5.41188 53.5383 5.65164C53.7709 5.89141 53.8872 6.1893 53.8872 6.54532V14.1476L58.286 9.89478C58.5464 9.63443 58.8481 9.50486 59.1909 9.50486C59.4926 9.50486 59.7627 9.63201 60.0026 9.88509C60.2424 10.1382 60.3624 10.3961 60.3624 10.6553C60.3624 10.9834 60.1976 11.2922 59.8693 11.5792L56.7656 14.4346L60.3624 18.3387C60.6216 18.6124 60.7513 18.9211 60.7513 19.2626Z" fill="#2E3333"/>
<path d="M71.9324 15.5437C71.6853 15.7495 71.3982 15.8524 71.0687 15.8524H64.2858C64.4505 16.6601 64.8273 17.2947 65.416 17.7524C66.0048 18.2114 66.6699 18.4402 67.4101 18.4402C67.9722 18.4402 68.4095 18.3894 68.7257 18.2864C69.0407 18.1835 69.2915 18.0745 69.4756 17.9583C69.661 17.842 69.787 17.7633 69.856 17.7221C70.1031 17.5986 70.3357 17.5369 70.555 17.5369C70.8433 17.5369 71.0893 17.6398 71.2952 17.8457C71.5012 18.0515 71.6041 18.2913 71.6041 18.565C71.6041 18.9343 71.4115 19.2709 71.0287 19.5712C70.6447 19.8861 70.131 20.1537 69.4865 20.3729C68.842 20.5921 68.1915 20.7011 67.5337 20.7011C66.3828 20.7011 65.3785 20.4613 64.522 19.9818C63.6655 19.5022 63.004 18.841 62.5388 17.9994C62.0724 17.1566 61.8398 16.2085 61.8398 15.1537C61.8398 13.9755 62.087 12.9413 62.58 12.0513C63.0731 11.1613 63.7236 10.4795 64.5329 10.0072C65.3409 9.53496 66.2047 9.29883 67.123 9.29883C68.0279 9.29883 68.8808 9.54586 69.6816 10.0387C70.4835 10.5316 71.1232 11.1964 71.6041 12.0319C72.0839 12.8675 72.3237 13.772 72.3237 14.7444C72.308 15.0714 72.1784 15.339 71.9324 15.5437ZM64.3064 13.7975H69.6913V13.6534C69.6367 13.0782 69.3557 12.5853 68.8481 12.1736C68.3405 11.7631 67.765 11.5572 67.1218 11.5572C65.5323 11.5584 64.5935 12.3044 64.3064 13.7975Z" fill="#2E3333"/>
<path d="M76.6926 20.1357C76.4528 20.3755 76.1548 20.4954 75.7986 20.4954C75.4558 20.4954 75.1686 20.3755 74.936 20.1357C74.7022 19.896 74.5859 19.5981 74.5859 19.242V6.54532C74.5859 6.1893 74.7059 5.89141 74.9457 5.65164C75.1856 5.41188 75.4836 5.29199 75.8398 5.29199C76.1826 5.29199 76.4697 5.41188 76.7023 5.65164C76.9362 5.89141 77.0512 6.1893 77.0512 6.54532V19.2433C77.0524 19.5993 76.9325 19.8972 76.6926 20.1357Z" fill="#2E3333"/>
<path d="M80.011 7.94157C79.8196 7.79141 79.7227 7.5238 79.7227 7.13993V6.74879C79.7227 6.36613 79.8256 6.09852 80.0316 5.94715C80.2375 5.79699 80.5658 5.7207 81.0177 5.7207C81.4974 5.7207 81.833 5.79578 82.0256 5.94715C82.217 6.09852 82.314 6.36492 82.314 6.74879V7.13993C82.314 7.53712 82.2146 7.80715 82.0159 7.95126C81.8173 8.09536 81.478 8.1668 80.9983 8.1668C80.5319 8.16801 80.2036 8.09294 80.011 7.94157ZM81.9021 20.1358C81.6695 20.3755 81.3739 20.4954 81.0177 20.4954C80.6615 20.4954 80.3672 20.3755 80.1346 20.1358C79.9007 19.896 79.7857 19.5981 79.7857 19.2421V10.757C79.7857 10.401 79.902 10.1031 80.1346 9.86333C80.3672 9.62357 80.6615 9.50368 81.0177 9.50368C81.3739 9.50368 81.6683 9.62357 81.9021 9.86333C82.1347 10.1031 82.251 10.401 82.251 10.757V19.2421C82.2522 19.5993 82.1359 19.8972 81.9021 20.1358Z" fill="#2E3333"/>
<path d="M92.3859 9.84278C93.0982 10.2061 93.4544 10.688 93.4544 11.2911C93.4544 11.5926 93.3648 11.8566 93.1867 12.0818C93.0086 12.3083 92.776 12.4209 92.4877 12.4209C92.2684 12.4209 92.0903 12.3894 91.9534 12.3288C91.8165 12.2671 91.6833 12.1847 91.5524 12.0818C91.4216 11.9789 91.2956 11.8941 91.172 11.8251C91.0351 11.7561 90.8328 11.6955 90.5663 11.6398C90.2986 11.5853 90.0829 11.5575 89.9182 11.5575C88.8909 11.5575 88.0853 11.8759 87.5025 12.5129C86.9198 13.1499 86.6291 13.9818 86.6291 15.0087C86.6291 15.9944 86.9235 16.813 87.5135 17.4644C88.1022 18.1159 88.8557 18.4405 89.774 18.4405C90.4452 18.4405 90.9455 18.3581 91.2738 18.1934C91.3562 18.1523 91.4688 18.0808 91.613 17.9779C91.7572 17.875 91.8904 17.7962 92.014 17.7417C92.1376 17.6873 92.2878 17.6594 92.4659 17.6594C92.8087 17.6594 93.0789 17.7696 93.2775 17.9876C93.4762 18.2067 93.5755 18.4877 93.5755 18.8304C93.5755 19.1586 93.3841 19.4673 93.0001 19.7555C92.6161 20.0437 92.1085 20.2726 91.4785 20.4434C90.8486 20.6141 90.1762 20.7001 89.4639 20.7001C88.4087 20.7001 87.4807 20.453 86.6788 19.9602C85.8768 19.4673 85.2565 18.7856 84.818 17.9161C84.3794 17.0467 84.1602 16.0767 84.1602 15.0087C84.1602 13.8994 84.3891 12.9125 84.8483 12.0503C85.3074 11.1869 85.9483 10.5124 86.7696 10.0268C87.5922 9.54125 88.5238 9.29785 89.5656 9.29785C90.7347 9.29785 91.6736 9.47949 92.3859 9.84278Z" fill="#2E3333"/>
<path d="M104.902 19.2626C104.902 19.6053 104.769 19.8935 104.501 20.126C104.233 20.3585 103.95 20.4748 103.648 20.4748C103.292 20.4748 102.99 20.3379 102.743 20.0643L99.0435 16.1602L98.0356 17.0841V19.242C98.0356 19.5981 97.9193 19.896 97.6867 20.1357C97.4541 20.3755 97.1585 20.4954 96.8036 20.4954C96.4474 20.4954 96.1518 20.3755 95.9192 20.1357C95.6854 19.896 95.5703 19.5981 95.5703 19.242V6.54532C95.5703 6.1893 95.6866 5.89141 95.9192 5.65164C96.1518 5.41188 96.4462 5.29199 96.8036 5.29199C97.1597 5.29199 97.4541 5.41188 97.6867 5.65164C97.9193 5.89141 98.0356 6.1893 98.0356 6.54532V14.1476L102.434 9.89478C102.695 9.63443 102.997 9.50486 103.339 9.50486C103.641 9.50486 103.911 9.63201 104.151 9.88509C104.391 10.1382 104.511 10.3961 104.511 10.6553C104.511 10.9834 104.346 11.2922 104.018 11.5792L100.914 14.4346L104.511 18.3387C104.772 18.6124 104.902 18.9211 104.902 19.2626Z" fill="#2E3333"/>
</svg>
